<?xml version="1.0" standalone="no"?>
<!DOCTYPE svg PUBLIC "-//W3C//DTD SVG 20010904//EN"
 "http://www.w3.org/TR/2001/REC-SVG-20010904/DTD/svg10.dtd">
<svg version="1.0" xmlns="http://www.w3.org/2000/svg"
 width="1024.000000pt" height="1024.000000pt" viewBox="0 0 1024.000000 1024.000000"
 preserveAspectRatio="xMidYMid meet">

<g transform="translate(0.000000,1024.000000) scale(0.100000,-0.100000)"
fill="#FFFFFF" stroke="none">
<path d="M6515 6635 c-132 -40 -312 -93 -400 -119 -509 -146 -706 -206 -755
-231 -49 -25 -96 -71 -127 -125 -25 -43 -56 -137 -49 -148 5 -8 129 21 621
147 297 75 342 81 440 56 108 -28 190 -100 243 -213 l27 -57 3 -772 c2 -605 5
-773 15 -773 19 0 178 46 218 63 71 30 161 129 188 207 7 19 16 116 21 215 36
683 67 1592 56 1647 -11 57 -64 129 -116 155 -71 36 -117 30 -385 -52z"/>
<path d="M7288 6556 c-59 -18 -113 -38 -121 -44 -11 -10 -16 -61 -21 -235 -4
-122 -11 -312 -16 -422 -5 -110 -14 -312 -20 -450 -30 -720 -32 -734 -92 -847
-38 -72 -137 -167 -210 -201 -29 -14 -102 -39 -161 -56 -59 -17 -112 -33 -118
-36 -16 -10 -11 -55 7 -55 32 0 781 201 827 222 59 27 151 122 178 184 29 64
39 207 100 1364 24 459 23 472 -33 536 -73 82 -150 92 -320 40z"/>
<path d="M6035 6090 c-113 -26 -1169 -289 -1235 -307 -45 -12 -67 -27 -130
-88 -71 -68 -80 -74 -165 -100 -217 -65 -593 -188 -625 -203 -78 -38 -71 -142
9 -142 31 0 219 54 435 125 167 54 206 57 247 16 22 -22 29 -39 29 -68 0 -83
-39 -115 -176 -148 -109 -27 -134 -45 -134 -99 0 -59 18 -71 108 -71 90 0 113
-12 133 -72 9 -28 8 -43 -5 -78 -26 -67 -7 -60 -451 -175 -88 -23 -214 -55
-280 -71 -182 -45 -195 -53 -195 -118 0 -32 32 -71 59 -71 9 0 204 47 435 105
230 58 432 105 448 105 43 0 88 -48 88 -95 0 -75 -31 -94 -215 -130 -128 -25
-145 -33 -161 -71 -15 -36 -8 -70 20 -93 18 -15 64 -10 191 20 106 25 121 24
156 -10 21 -22 29 -39 29 -66 0 -67 -17 -74 -295 -133 -151 -32 -260 -60 -275
-71 -18 -13 -26 -29 -28 -59 -3 -35 1 -43 23 -58 26 -17 32 -17 118 0 51 10
139 29 197 43 58 13 128 27 155 30 44 5 53 2 78 -21 24 -22 28 -33 25 -68 -4
-56 -32 -74 -141 -94 -95 -18 -132 -39 -142 -84 -4 -18 0 -34 15 -53 27 -34
49 -34 227 -1 379 70 560 105 683 129 74 14 301 58 505 96 218 41 386 78 411
89 69 34 121 86 156 158 l33 67 0 875 0 875 -26 56 c-56 120 -177 166 -334
129z m-391 -429 c3 -5 -5 -73 -19 -152 -14 -79 -34 -198 -44 -264 -11 -66 -23
-140 -27 -164 -7 -43 -6 -44 17 -38 88 22 273 47 281 39 12 -12 23 8 -297
-517 -257 -423 -283 -461 -296 -448 -6 6 5 71 26 159 89 385 105 456 105 471
0 19 -52 14 -192 -19 -49 -11 -92 -17 -96 -14 -13 13 26 90 217 425 109 190
217 382 241 426 57 107 69 121 84 96z"/>
<path d="M3500 5275 c-158 -44 -164 -47 -176 -85 -15 -44 4 -87 41 -96 29 -7
251 60 278 83 27 25 22 78 -9 102 -32 25 -28 25 -134 -4z"/>
<path d="M3936 5036 c-38 -13 -76 -32 -83 -42 -22 -30 -12 -84 20 -107 l27
-21 78 22 c115 34 154 91 97 147 -29 30 -50 30 -139 1z"/>
<path d="M3480 4901 c-58 -16 -159 -43 -225 -60 -66 -17 -129 -38 -141 -46
-49 -32 -35 -117 20 -131 21 -5 259 52 448 107 73 21 98 45 98 91 0 34 -35 68
-69 68 -14 -1 -73 -14 -131 -29z"/>
<path d="M3245 4468 c-60 -16 -118 -37 -127 -45 -26 -24 -23 -75 7 -103 21
-20 31 -22 73 -16 68 9 212 52 228 68 8 7 16 28 20 45 5 26 1 37 -19 57 -32
32 -43 31 -182 -6z"/>
<path d="M2742 4346 c-132 -35 -151 -48 -152 -103 0 -33 28 -73 52 -73 25 0
235 53 260 66 31 16 48 42 48 74 0 26 -43 70 -67 69 -10 0 -73 -15 -141 -33z"/>
<path d="M3900 4299 c-63 -15 -187 -44 -275 -64 -203 -46 -214 -51 -232 -92
-17 -42 -1 -83 39 -97 40 -14 613 128 645 160 41 41 20 106 -37 117 -14 3 -77
-8 -140 -24z"/>
<path d="M3600 3899 c-69 -17 -136 -38 -150 -48 -35 -25 -39 -75 -8 -108 21
-23 28 -25 78 -19 106 12 283 62 302 86 24 29 23 61 -3 94 -27 34 -57 33 -219
-5z"/>
<path d="M4060 3678 c-63 -13 -88 -27 -98 -57 -12 -33 0 -65 32 -87 24 -15 31
-15 97 0 40 9 78 21 86 27 7 6 13 29 13 49 0 30 -6 43 -26 59 -29 23 -37 23
-104 9z"/>
</g>
</svg>
